# xmcd CD database file
#
# Track frame offsets:
#	150
#	7012
#	13870
#	24397
#	37805
#	49132
#	58310
#	67620
#	79860
#	91232
#	104230
#	116092
#	126510
#	139672
#
# Disc length: 2129 seconds
#
# Revision: 0
# Processed by: cddbd v1.5PL3 Copyright (c) Steve Scherf et al.
# Submitted via: CDex 1.50beta8a
#
DISCID=be084f0e
DTITLE=TH eROCKERS - TH eROCKERS
DYEAR=1980
DGENRE=Rock
TTITLE0=HEY DJ!
TTITLE1=I LOVE YOU SO MUCH
TTITLE2=非常線をぶち破れ
TTITLE3=愚者
TTITLE4=TO BE OR NOT TO BE
TTITLE5=キャデラック
TTITLE6=ショック・ゲーム
TTITLE7=MIDNIGHT TRAIN
TTITLE8=ムーンナイト・ラブ
TTITLE9=HEY HEY HEY
TTITLE10=プシー・キャット
TTITLE11=1999
TTITLE12=歌うたい
TTITLE13=SEVENTEEN〜フェナー先生
EXTD=YEAR: 1980
EXTT0=
EXTT1=
EXTT2=
EXTT3=
EXTT4=
EXTT5=
EXTT6=
EXTT7=
EXTT8=
EXTT9=
EXTT10=
EXTT11=
EXTT12=
EXTT13=
PLAYORDER=
